<svg xmlns="http://www.w3.org/2000/svg" viewBox="0 0 64 64"><path fill="#abf" d="M41.375 24q2.75 0 4.688-1.938t1.938-4.688-1.938-4.75-4.688-2-4.75 2-2 4.75 2 4.688T41.375 24zm10.125-.25L59.75 32 56 35.75l-8.375-8.25q-3.125 1.875-6.375 1.875-5 0-8.438-3.5t-3.438-8.5 3.5-8.5 8.5-3.5 8.5 3.5 3.5 8.5q0 3.25-1.875 6.375zM44 48H14.625L22 38.625l5.25 6.25L34.5 35.5zm4-13.375L53.375 40v13.375q0 2.125-1.625 3.688T48 58.626H10.625q-2.125 0-3.688-1.563t-1.563-3.688V16q0-2.125 1.563-3.75t3.688-1.625h14.75Q24.125 13.25 24 16H10.625v37.375H48v-18.75z"/></svg>