<svg xmlns="http://www.w3.org/2000/svg" viewBox="0 0 64 64"><path fill="#aabbff" d="M41.375 24q2.75 0 4.688-1.938t1.938-4.688-1.938-4.75-4.688-2-4.75 2-2 4.75 2 4.688 4.75 1.938zM51.5 23.75l8.25 8.25-3.75 3.75-8.375-8.25q-3.125 1.875-6.375 1.875-5 0-8.438-3.5t-3.438-8.5 3.5-8.5 8.5-3.5 8.5 3.5 3.5 8.5q0 3.25-1.875 6.375zM44 48h-29.375l7.375-9.375 5.25 6.25 7.25-9.375zM48 34.625l5.375 5.375v13.375q0 2.125-1.625 3.688t-3.75 1.563h-37.375q-2.125 0-3.688-1.563t-1.563-3.688v-37.375q0-2.125 1.563-3.75t3.688-1.625h14.75q-1.25 2.625-1.375 5.375h-13.375v37.375h37.375v-18.75z"></svg>